<svg xmlns="http://www.w3.org/2000/svg" xlink:href="data:image/png;base64" width="100" height="100" viewBox="0 0 100 100"><g><g transform="translate(50 50) scale(0.69 0.69) rotate(0) translate(-50 -50)" style="fill:#870028"><svg fill="#870028" xmlns="http://www.w3.org/2000/svg" xmlns:xlink="http://www.w3.org/1999/xlink" version="1.1" x="0px" y="0px" viewBox="0 0 70 70" style="enable-background:new 0 0 70 70;" xml:space="preserve"><path d="M58.5,26.7L48.2,21v-7.5c0-0.6-0.4-1-1-1H22.8c-0.6,0-1,0.4-1,1V21l-10.3,5.6c-0.3,0.2-0.5,0.5-0.5,0.9v28.9  c0,0.6,0.4,1,1,1h10.8h7.7h9.6h7H58c0.6,0,1-0.4,1-1V27.6C59,27.2,58.8,26.9,58.5,26.7z M21.8,55.5H13V28.1l8.8-4.8V55.5z   M39.1,55.5h-7.6v-9.2h7.6V55.5z M46.2,21.6v33.8h-5V45.3c0-0.6-0.4-1-1-1h-9.6c-0.6,0-1,0.4-1,1v10.2h-5.7V21.6v-7.1h22.3V21.6z   M57,55.5h-8.8V23.3l8.8,4.8V55.5z"></path><path d="M16.4,32.2l2,0c0,0,0,0,0,0c0.6,0,1-0.4,1-1s-0.4-1-1-1l-2,0c0,0,0,0,0,0c-0.6,0-1,0.4-1,1S15.9,32.2,16.4,32.2z"></path><path d="M16.4,37.1l2,0c0,0,0,0,0,0c0.6,0,1-0.4,1-1c0-0.6-0.4-1-1-1l-2,0c0,0,0,0,0,0c-0.6,0-1,0.4-1,1  C15.4,36.6,15.9,37.1,16.4,37.1z"></path><path d="M16.4,42l2,0c0,0,0,0,0,0c0.6,0,1-0.4,1-1c0-0.6-0.4-1-1-1l-2,0c0,0,0,0,0,0c-0.6,0-1,0.4-1,1C15.4,41.5,15.9,42,16.4,42z"></path><path d="M16.4,46.8l2,0c0,0,0,0,0,0c0.6,0,1-0.4,1-1c0-0.6-0.4-1-1-1l-2,0c0,0,0,0,0,0c-0.6,0-1,0.4-1,1  C15.4,46.4,15.9,46.8,16.4,46.8z"></path><path d="M16.4,51.7l2,0c0,0,0,0,0,0c0.6,0,1-0.4,1-1c0-0.6-0.4-1-1-1l-2,0c0,0,0,0,0,0c-0.6,0-1,0.4-1,1  C15.4,51.3,15.9,51.7,16.4,51.7z"></path><path d="M51.6,32.2l2,0c0,0,0,0,0,0c0.6,0,1-0.4,1-1s-0.4-1-1-1l-2,0c0,0,0,0,0,0c-0.6,0-1,0.4-1,1S51,32.2,51.6,32.2z"></path><path d="M51.6,37.1l2,0c0,0,0,0,0,0c0.6,0,1-0.4,1-1c0-0.6-0.4-1-1-1l-2,0c0,0,0,0,0,0c-0.6,0-1,0.4-1,1  C50.6,36.6,51,37.1,51.6,37.1z"></path><path d="M51.6,42l2,0c0,0,0,0,0,0c0.6,0,1-0.4,1-1c0-0.6-0.4-1-1-1l-2,0c0,0,0,0,0,0c-0.6,0-1,0.4-1,1C50.6,41.5,51,42,51.6,42z"></path><path d="M51.6,46.8l2,0c0,0,0,0,0,0c0.6,0,1-0.4,1-1c0-0.6-0.4-1-1-1l-2,0c0,0,0,0,0,0c-0.6,0-1,0.4-1,1  C50.6,46.4,51,46.8,51.6,46.8z"></path><path d="M51.6,51.7l2,0c0,0,0,0,0,0c0.6,0,1-0.4,1-1c0-0.6-0.4-1-1-1l-2,0c0,0,0,0,0,0c-0.6,0-1,0.4-1,1  C50.6,51.3,51,51.7,51.6,51.7z"></path><path d="M27.6,19.7l2,0c0,0,0,0,0,0c0.6,0,1-0.4,1-1c0-0.6-0.4-1-1-1l-2,0c0,0,0,0,0,0c-0.6,0-1,0.4-1,1  C26.6,19.3,27,19.7,27.6,19.7z"></path><path d="M34.2,19.7l2,0c0,0,0,0,0,0c0.6,0,1-0.4,1-1c0-0.6-0.4-1-1-1l-2,0c0,0,0,0,0,0c-0.6,0-1,0.4-1,1  C33.2,19.3,33.6,19.7,34.2,19.7z"></path><path d="M40.7,19.7l2,0c0,0,0,0,0,0c0.6,0,1-0.4,1-1c0-0.6-0.4-1-1-1l-2,0c0,0,0,0,0,0c-0.6,0-1,0.4-1,1  C39.7,19.3,40.2,19.7,40.7,19.7z"></path><path d="M27.6,25l2,0c0,0,0,0,0,0c0.6,0,1-0.4,1-1c0-0.6-0.4-1-1-1l-2,0c0,0,0,0,0,0c-0.6,0-1,0.4-1,1C26.6,24.5,27,25,27.6,25z"></path><path d="M34.2,25l2,0c0,0,0,0,0,0c0.6,0,1-0.4,1-1c0-0.6-0.4-1-1-1l-2,0c0,0,0,0,0,0c-0.6,0-1,0.4-1,1C33.2,24.5,33.6,25,34.2,25z"></path><path d="M40.7,25l2,0c0,0,0,0,0,0c0.6,0,1-0.4,1-1c0-0.6-0.4-1-1-1l-2,0c0,0,0,0,0,0c-0.6,0-1,0.4-1,1C39.7,24.5,40.2,25,40.7,25z"></path><path d="M27.6,30.2l2,0c0,0,0,0,0,0c0.6,0,1-0.4,1-1c0-0.6-0.4-1-1-1l-2,0c0,0,0,0,0,0c-0.6,0-1,0.4-1,1  C26.6,29.8,27,30.2,27.6,30.2z"></path><path d="M34.2,30.2l2,0c0,0,0,0,0,0c0.6,0,1-0.4,1-1c0-0.6-0.4-1-1-1l-2,0c0,0,0,0,0,0c-0.6,0-1,0.4-1,1  C33.2,29.8,33.6,30.2,34.2,30.2z"></path><path d="M40.7,30.2l2,0c0,0,0,0,0,0c0.6,0,1-0.4,1-1c0-0.6-0.4-1-1-1l-2,0c0,0,0,0,0,0c-0.6,0-1,0.4-1,1  C39.7,29.8,40.2,30.2,40.7,30.2z"></path><path d="M27.6,35.5l2,0c0,0,0,0,0,0c0.6,0,1-0.4,1-1c0-0.6-0.4-1-1-1l-2,0c0,0,0,0,0,0c-0.6,0-1,0.4-1,1C26.6,35,27,35.5,27.6,35.5z  "></path><path d="M34.2,35.5l2,0c0,0,0,0,0,0c0.6,0,1-0.4,1-1c0-0.6-0.4-1-1-1l-2,0c0,0,0,0,0,0c-0.6,0-1,0.4-1,1  C33.2,35,33.6,35.5,34.2,35.5z"></path><path d="M40.7,35.5l2,0c0,0,0,0,0,0c0.6,0,1-0.4,1-1c0-0.6-0.4-1-1-1l-2,0c0,0,0,0,0,0c-0.6,0-1,0.4-1,1  C39.7,35,40.2,35.5,40.7,35.5z"></path><path d="M27.6,40.7l2,0c0,0,0,0,0,0c0.6,0,1-0.4,1-1c0-0.6-0.4-1-1-1l-2,0c0,0,0,0,0,0c-0.6,0-1,0.4-1,1  C26.6,40.2,27,40.7,27.6,40.7z"></path><path d="M34.2,40.7l2,0c0,0,0,0,0,0c0.6,0,1-0.4,1-1c0-0.6-0.4-1-1-1l-2,0c0,0,0,0,0,0c-0.6,0-1,0.4-1,1  C33.2,40.2,33.6,40.7,34.2,40.7z"></path><path d="M40.7,40.7l2,0c0,0,0,0,0,0c0.6,0,1-0.4,1-1c0-0.6-0.4-1-1-1l-2,0c0,0,0,0,0,0c-0.6,0-1,0.4-1,1  C39.7,40.2,40.2,40.7,40.7,40.7z"></path></svg></g></g></svg>