<svg xmlns="http://www.w3.org/2000/svg" xmlns:xlink="http://www.w3.org/1999/xlink" width="100" height="100" viewBox="0 0 100 100"><g><g transform="translate(50 50) scale(0.69 0.69) rotate(0) translate(-50 -50)" style="fill:#870028"><svg fill="#870028" xmlns="http://www.w3.org/2000/svg" viewBox="0 0 32 32" x="0px" y="0px"><title>dina kie</title><path data-name="Oval 2" d="M16,21.94a5.09,5.09,0,1,1,5.09-5.09A5.1,5.1,0,0,1,16,21.94Zm0-8.48a3.39,3.39,0,1,0,3.39,3.39A3.4,3.4,0,0,0,16,13.45Z"></path><path data-name="Shape 6" d="M26.18,25.33H5.82a3.4,3.4,0,0,1-3.39-3.39V13.45a3.4,3.4,0,0,1,3.39-3.39H9.21a1.5,1.5,0,0,0,.88-.38l2.16-2.16a3.24,3.24,0,0,1,2-.85H17.7a3.24,3.24,0,0,1,2,.82l2.23,2.22a1.51,1.51,0,0,0,.9.35h3.35a3.4,3.4,0,0,1,3.39,3.39v8.48A3.4,3.4,0,0,1,26.18,25.33Zm-8.53-17H14.3a1.49,1.49,0,0,0-.88.38l-2.16,2.16a3.24,3.24,0,0,1-2,.85H5.82a1.7,1.7,0,0,0-1.7,1.7v8.48a1.7,1.7,0,0,0,1.7,1.7H26.18a1.7,1.7,0,0,0,1.7-1.7V13.45a1.7,1.7,0,0,0-1.7-1.7H22.79a3.25,3.25,0,0,1-2-.82L18.55,8.71A1.49,1.49,0,0,0,17.65,8.36Z"></path><path data-name="Shape 7" d="M24.48,16.42a1.27,1.27,0,1,1,1.27-1.27A1.27,1.27,0,0,1,24.48,16.42Zm0-1.7a.43.43,0,0,0-.42.42c0,.47.85.47.85,0A.43.43,0,0,0,24.48,14.73Z"></path></svg></g></g></svg>